<svg id="visual" viewBox="0 0 1920 1080" width="1920" height="1080" xmlns="http://www.w3.org/2000/svg" xmlns:xlink="http://www.w3.org/1999/xlink" version="1.1"><rect x="0" y="0" width="1920" height="1080" fill="#2f2483"></rect><path d="M0 652L274 699L549 745L823 782L1097 630L1371 808L1646 661L1920 684L1920 1081L1646 1081L1371 1081L1097 1081L823 1081L549 1081L274 1081L0 1081Z" fill="#f4c203"></path><path d="M0 830L274 742L549 809L823 769L1097 762L1371 824L1646 838L1920 732L1920 1081L1646 1081L1371 1081L1097 1081L823 1081L549 1081L274 1081L0 1081Z" fill="#ff7833"></path><path d="M0 848L274 799L549 902L823 807L1097 891L1371 854L1646 899L1920 858L1920 1081L1646 1081L1371 1081L1097 1081L823 1081L549 1081L274 1081L0 1081Z" fill="#e5305e"></path><path d="M0 899L274 953L549 897L823 875L1097 882L1371 950L1646 953L1920 868L1920 1081L1646 1081L1371 1081L1097 1081L823 1081L549 1081L274 1081L0 1081Z" fill="#a00f7d"></path><path d="M0 986L274 1017L549 971L823 967L1097 1030L1371 985L1646 982L1920 1017L1920 1081L1646 1081L1371 1081L1097 1081L823 1081L549 1081L274 1081L0 1081Z" fill="#2f2483"></path></svg>